<?xml version="1.0" standalone="no"?>
<!DOCTYPE svg PUBLIC "-//W3C//DTD SVG 20010904//EN"
 "http://www.w3.org/TR/2001/REC-SVG-20010904/DTD/svg10.dtd">
<svg version="1.0" xmlns="http://www.w3.org/2000/svg"
 width="1080.000000pt" height="356.000000pt" viewBox="0 0 1080.000000 356.000000"
 preserveAspectRatio="xMidYMid meet">

<g transform="translate(0.000000,356.000000) scale(0.100000,-0.100000)"
fill="#000000" stroke="none">
<path d="M8430 1820 l0 -730 140 0 140 0 2 429 3 430 488 -460 c268 -252 490
-459 492 -459 3 0 5 329 5 730 l0 730 -135 0 -135 0 0 -431 c0 -264 -4 -429
-9 -427 -6 2 -228 209 -495 461 -267 251 -488 457 -491 457 -3 0 -5 -328 -5
-730z"/>
<path d="M1456 2509 c-165 -27 -301 -133 -341 -263 -19 -63 -19 -168 0 -233
21 -72 91 -162 162 -210 33 -22 109 -59 169 -83 225 -89 295 -138 310 -215 23
-122 -51 -199 -191 -200 -120 0 -228 67 -314 196 l-39 58 -101 -71 -100 -72
27 -50 c38 -72 149 -184 223 -229 176 -104 383 -112 566 -22 162 80 247 231
230 411 -17 180 -145 308 -397 398 -111 40 -208 95 -238 134 -39 51 -38 119 2
161 41 43 76 54 155 49 85 -4 146 -39 210 -119 l44 -55 109 59 c59 32 108 62
108 66 0 19 -64 102 -118 154 -124 117 -296 167 -476 136z"/>
<path d="M4832 2509 c-82 -12 -207 -59 -280 -103 -117 -71 -233 -213 -283
-345 -51 -135 -61 -334 -24 -476 65 -247 257 -441 502 -507 111 -30 315 -30
426 0 127 35 210 84 312 187 140 139 200 276 212 485 10 179 -44 362 -148 496
-87 113 -244 213 -391 248 -84 21 -243 28 -326 15z m259 -275 c270 -80 388
-415 244 -694 -24 -47 -89 -114 -143 -149 -135 -85 -346 -81 -477 9 -223 154
-259 509 -72 716 48 53 138 108 203 123 64 15 186 12 245 -5z"/>
<path d="M2530 1790 l0 -700 145 0 145 0 0 310 0 310 325 0 325 0 0 -310 0
-310 145 0 145 0 0 700 0 700 -145 0 -145 0 0 -265 0 -265 -325 0 -325 0 0
265 0 265 -145 0 -145 0 0 -700z"/>
<path d="M6160 1790 l0 -700 145 0 145 0 0 255 0 255 125 0 c208 0 332 37 437
129 93 83 142 241 120 387 -22 143 -104 255 -229 315 -103 49 -183 59 -479 59
l-264 0 0 -700z m598 425 c64 -35 92 -77 99 -150 11 -105 -39 -180 -143 -211
-28 -8 -91 -14 -156 -14 l-108 0 0 206 0 206 128 -4 c117 -3 131 -6 180 -33z"/>
<path d="M7600 1790 l0 -700 145 0 145 0 0 700 0 700 -145 0 -145 0 0 -700z"/>
</g>
</svg>
