<svg xmlns="http://www.w3.org/2000/svg" width="1080" height="1350" viewBox="0 0 1080 1350" version="1.1"><path d="M 515.500 513.780 C 502.942 514.482, 507.185 516.822, 521 516.813 C 535.171 516.805, 538.895 514.576, 526 513.822 C 522.975 513.645, 518.250 513.626, 515.500 513.780 M 493.250 516.662 C 490.956 517.588, 491.964 519, 494.918 519 C 498.433 519, 501 518.111, 501 516.893 C 501 515.958, 495.407 515.792, 493.250 516.662 M 540 516.836 C 540 518.116, 542.518 519, 546.165 519 C 548.119 519, 549.023 518.564, 548.756 517.750 C 548.276 516.291, 540 515.427, 540 516.836 M 482.936 519.577 C 481.782 520.968, 482.025 521.116, 484.986 520.827 C 486.834 520.647, 488.531 519.938, 488.756 519.250 C 489.360 517.411, 484.507 517.684, 482.936 519.577 M 553.244 519.250 C 553.469 519.938, 555.194 520.642, 557.077 520.817 C 560.337 521.118, 560.404 521.060, 558.500 519.598 C 556.074 517.737, 552.673 517.511, 553.244 519.250 M 476.695 520.700 C 475.022 521.133, 474.650 523.243, 476.275 523.075 C 476.674 523.034, 477.675 523, 478.500 523 C 479.325 523, 480 522.325, 480 521.500 C 480 519.957, 479.773 519.902, 476.695 520.700 M 562 521.441 C 562 523.377, 563.444 524.151, 565.550 523.342 C 567.170 522.721, 567.164 522.593, 565.449 521.339 C 563.085 519.611, 562 519.643, 562 521.441 M 468.920 524.596 C 467.764 525.990, 467.897 526.148, 469.970 525.846 C 471.275 525.656, 472.529 524.938, 472.755 524.250 C 473.348 522.451, 470.486 522.709, 468.920 524.596 M 575 526.500 C 575 527.433, 575.944 528, 577.500 528 C 578.875 528, 580 528.450, 580 529 C 580 529.550, 580.459 530, 581.020 530 C 581.581 530, 583.822 531.125, 586 532.500 C 588.178 533.875, 590.482 535, 591.120 535 C 591.758 535, 592.855 535.787, 593.558 536.748 C 594.261 537.710, 595.143 538.190, 595.518 537.815 C 596.616 536.717, 595.387 535.508, 591.069 533.439 C 588.844 532.373, 587.018 531.163, 587.011 530.750 C 587.005 530.337, 586.361 530, 585.581 530 C 583.912 530, 577.650 526.837, 577.167 525.750 C 576.572 524.413, 575 524.957, 575 526.500 M 453.500 531.360 C 449.063 533.943, 445.964 536.297, 446.411 536.745 C 447.059 537.393, 453 534.698, 453 533.756 C 453 533.340, 453.900 533, 455 533 C 456.111 533, 457 532.333, 457 531.500 C 457 529.768, 456.285 529.739, 453.500 531.360 M 441.022 539.194 C 439.726 540.401, 439.156 541.552, 439.755 541.752 C 440.928 542.143, 445 539.058, 445 537.778 C 445 536.391, 443.430 536.950, 441.022 539.194 M 597 537.533 C 597 538.364, 603.295 544, 604.223 544 C 605.368 544, 605.170 543.019, 603.750 541.666 C 601.835 539.840, 597 536.880, 597 537.533 M 499 539.500 C 499 541.506, 505.918 541.529, 508.559 539.532 C 510.339 538.185, 510.024 538.061, 504.750 538.032 C 500.291 538.007, 499 538.337, 499 539.500 M 531.691 539.086 C 532.346 539.744, 535.217 540.507, 538.071 540.781 C 542.205 541.178, 543.166 540.997, 542.801 539.890 C 542.494 538.962, 540.375 538.399, 536.421 538.195 C 531.829 537.959, 530.767 538.159, 531.691 539.086 M 489.667 540.667 C 488.138 542.196, 489.201 543.107, 492.173 542.813 C 496.311 542.405, 497.231 540, 493.250 540 C 491.646 540, 490.033 540.300, 489.667 540.667 M 546 540.830 C 546 541.982, 548.423 543, 551.165 543 C 552.319 543, 552.993 542.470, 552.756 541.750 C 552.274 540.281, 546 539.426, 546 540.830 M 482 544.500 C 482 546.393, 483.085 546.403, 485.559 544.532 C 487.418 543.126, 487.384 543.062, 484.750 543.032 C 482.958 543.011, 482 543.523, 482 544.500 M 555 544 C 555 544.550, 555.413 545, 555.918 545 C 556.423 545, 557.548 545.273, 558.418 545.607 C 559.456 546.005, 560 545.662, 560 544.607 C 560 543.560, 559.130 543, 557.500 543 C 556.125 543, 555 543.450, 555 544 M 429.445 548.500 C 426.788 550.975, 425.182 553, 425.878 553 C 426.574 553, 427.714 552.438, 428.413 551.750 C 429.112 551.063, 431.105 549.420, 432.842 548.100 C 435.906 545.772, 436.899 544, 435.139 544 C 434.665 544, 432.103 546.025, 429.445 548.500 M 607 544.874 C 607 545.973, 626.619 565.368, 628.265 565.896 C 629.961 566.440, 626.790 562.716, 618.986 555 C 611.009 547.112, 607 543.725, 607 544.874 M 476 546.500 C 476 547.325, 476.620 548, 477.378 548 C 478.135 548, 479.315 547.325, 480 546.500 C 481.053 545.232, 480.840 545, 478.622 545 C 476.958 545, 476 545.548, 476 546.500 M 562.244 546.250 C 562.470 546.938, 563.857 547.642, 565.327 547.816 C 566.797 547.990, 568 548.553, 568 549.066 C 568 549.580, 568.845 550, 569.878 550 C 570.910 550, 572.315 550.675, 573 551.500 C 573.685 552.325, 574.752 553.010, 575.372 553.022 C 575.993 553.034, 577.625 553.924, 579 555 C 581.722 557.129, 584 557.584, 584 555.997 C 584 555.445, 582.200 554.214, 580 553.261 C 577.800 552.308, 576 551.184, 576 550.764 C 576 550.344, 575.361 550, 574.581 550 C 572.912 550, 566.650 546.837, 566.167 545.750 C 565.586 544.443, 561.808 544.924, 562.244 546.250 M 459.783 554.500 C 458.301 555.875, 456.586 557, 455.972 557 C 454.513 557, 452 559.539, 452 561.014 C 452 561.650, 454.198 560.557, 456.884 558.585 C 459.570 556.613, 462.270 555, 462.884 555 C 463.498 555, 464 554.325, 464 553.500 C 464 551.367, 462.875 551.633, 459.783 554.500 M 416.661 561.236 C 411.641 566.660, 409.360 570.015, 410.715 569.980 C 411.147 569.969, 412.850 568.394, 414.500 566.480 C 416.150 564.566, 418.738 561.665, 420.250 560.034 C 421.762 558.402, 423 556.827, 423 556.534 C 423 555.049, 421.041 556.502, 416.661 561.236 M 585 557.778 C 585 558.663, 587.621 560.904, 590.825 562.758 C 593.995 564.593, 593.485 563.111, 589.820 559.839 C 586.649 557.008, 585 556.303, 585 557.778 M 438.428 571.444 C 430.112 579.773, 427.639 583, 429.570 583 C 430.286 583, 450 563.246, 450 562.528 C 450 560.622, 446.671 563.187, 438.428 571.444 M 594.709 564.625 C 594.375 564.959, 597.048 568.135, 600.649 571.684 C 604.251 575.233, 607.414 577.919, 607.680 577.654 C 608.535 576.799, 606.295 573.590, 602.337 570 C 596.658 564.850, 595.382 563.951, 594.709 564.625 M 631.032 570.750 C 631.090 572.131, 633.707 575, 634.907 575 C 635.657 575, 635.433 574.093, 634.297 572.531 C 632.538 570.115, 630.969 569.259, 631.032 570.750 M 405.659 575 C 404.684 576.650, 404.293 578, 404.788 578 C 406.034 578, 409 574.600, 409 573.171 C 409 571.090, 407.476 571.924, 405.659 575 M 402.345 580.687 C 401.993 581.684, 400.600 583.992, 399.251 585.816 C 397.902 587.639, 397.039 589.372, 397.332 589.666 C 398.190 590.523, 400 589.013, 400 587.441 C 400 586.648, 400.450 586, 401 586 C 401.550 586, 402 585.473, 402 584.829 C 402 584.185, 402.704 582.879, 403.565 581.928 C 404.611 580.772, 404.774 579.979, 404.058 579.536 C 403.468 579.171, 402.698 579.689, 402.345 580.687 M 611.594 583.998 C 613.569 586.747, 615.621 589.266, 616.154 589.595 C 616.687 589.925, 617.562 591.349, 618.099 592.760 C 618.771 594.527, 619.396 595.004, 620.109 594.291 C 620.821 593.579, 620.342 592.394, 618.571 590.483 C 617.157 588.957, 616 587.263, 616 586.719 C 616 586.175, 614.875 584.687, 613.500 583.412 C 612.125 582.138, 611 580.624, 611 580.048 C 611 579.471, 610.326 579, 609.502 579 C 608.450 579, 609.073 580.489, 611.594 583.998 M 425.750 586.392 C 423.909 587.790, 423.379 590, 424.885 590 C 425.372 590, 426.507 588.875, 427.408 587.500 C 429.196 584.772, 428.498 584.306, 425.750 586.392 M 422 592.393 C 422 593.159, 421.296 594.056, 420.437 594.386 C 419.577 594.716, 419.153 595.439, 419.496 595.993 C 420.513 597.638, 421.403 597.158, 423.203 593.994 C 424.628 591.490, 424.669 591, 423.453 591 C 422.654 591, 422 591.627, 422 592.393 M 393 597.099 C 393 597.703, 392.266 599.744, 391.369 601.635 C 389.725 605.099, 389.965 606.758, 391.933 605.541 C 392.520 605.179, 393 603.976, 393 602.870 C 393 601.763, 393.675 600.182, 394.500 599.357 C 395.325 598.532, 396 597.439, 396 596.929 C 396 596.418, 395.325 596, 394.500 596 C 393.675 596, 393 596.494, 393 597.099 M 620 596.443 C 620 597.614, 624.309 604, 625.099 604 C 626.474 604, 626.174 602.317, 624.500 600.643 C 623.675 599.818, 623 598.436, 623 597.571 C 623 596.707, 622.325 596, 621.500 596 C 620.675 596, 620 596.199, 620 596.443 M 649.404 604.389 C 648.752 606.088, 649.629 608, 651.059 608 C 652.320 608, 652.266 604.282, 650.993 603.496 C 650.439 603.153, 649.724 603.555, 649.404 604.389 M 388.667 608.667 C 388.300 609.033, 388 610.196, 388 611.250 C 388 613.843, 390.415 612.920, 390.820 610.172 C 391.129 608.069, 390.031 607.302, 388.667 608.667 M 627 611.358 C 627 612.196, 627.450 613.160, 628 613.500 C 628.550 613.840, 629 614.737, 629 615.494 C 629 616.251, 629.482 618.137, 630.070 619.685 C 631.068 622.309, 631.213 622.370, 632.210 620.589 C 633.035 619.116, 632.923 618.417, 631.726 617.541 C 630.871 616.917, 630.021 615.111, 629.836 613.530 C 629.489 610.558, 627 608.652, 627 611.358 M 652.032 612.250 C 652.011 614.042, 652.523 615, 653.500 615 C 655.393 615, 655.403 613.915, 653.532 611.441 C 652.126 609.582, 652.062 609.616, 652.032 612.250 M 386.070 617.315 C 384.711 620.891, 384.720 621, 386.393 621 C 388.262 621, 389.226 618.225, 388.072 616.164 C 387.275 614.740, 386.986 614.906, 386.070 617.315 M 410 618.191 C 410 621.212, 410.078 621.279, 411.468 619.441 C 413.375 616.920, 413.389 615, 411.500 615 C 410.480 615, 410 616.021, 410 618.191 M 654.236 620.423 C 654.381 622.580, 655.063 624.530, 655.750 624.756 C 657.527 625.340, 657.338 620.816, 655.486 618.441 C 654.069 616.624, 653.990 616.750, 654.236 620.423 M 407.739 623.889 C 406.947 626.920, 408.573 628.666, 409.893 626.201 C 411.381 623.420, 411.287 622, 409.617 622 C 408.856 622, 408.011 622.850, 407.739 623.889 M 384.250 625.950 C 382.742 628.391, 382.589 634, 384.031 634 C 385.539 634, 386.176 631.705, 385.817 627.569 C 385.524 624.203, 385.405 624.081, 384.250 625.950 M 632 626.335 C 632 629.528, 632.946 632, 634.167 632 C 635.574 632, 634.714 624.725, 633.250 624.244 C 632.474 623.989, 632 624.781, 632 626.335 M 656.521 630.967 C 655.681 632.325, 657.003 639, 658.111 639 C 659.296 639, 659.258 631.277, 658.069 630.543 C 657.557 630.226, 656.860 630.417, 656.521 630.967 M 405.607 633.582 C 404.680 635.996, 404.884 642, 405.893 642 C 407.164 642, 408 639.389, 408 635.418 C 408 631.865, 406.660 630.837, 405.607 633.582 M 634.308 653.008 C 634.291 665.792, 634.608 670.964, 635.392 670.703 C 636.918 670.194, 636.942 635.814, 635.416 635.305 C 634.664 635.055, 634.324 640.485, 634.308 653.008 M 381.622 642.141 C 380.832 646.089, 380.836 660.786, 381.627 663.739 C 382.998 668.854, 384 664.110, 384 652.500 C 384 640.525, 382.902 635.741, 381.622 642.141 M 405 668.835 C 405 672.482, 405.884 675, 407.164 675 C 408.573 675, 407.709 666.724, 406.250 666.244 C 405.436 665.977, 405 666.881, 405 668.835 M 656.458 671.429 C 655.774 675.992, 656.436 678.467, 658.069 677.457 C 659.289 676.703, 659.282 667, 658.061 667 C 657.545 667, 656.824 668.993, 656.458 671.429 M 383 675.726 C 383 677.316, 383.680 679.491, 384.510 680.559 C 385.916 682.365, 386.003 682.192, 385.760 678.078 C 385.467 673.103, 383 671, 383 675.726 M 632 679.083 C 632 682.909, 634.356 682.566, 634.816 678.673 C 635.041 676.779, 634.677 676, 633.566 676 C 632.483 676, 632 676.951, 632 679.083 M 408.035 681.250 C 408.010 683.932, 408.427 685, 409.500 685 C 411.363 685, 411.363 683.259, 409.500 680 L 408.071 677.500 408.035 681.250 M 654.667 682.667 C 654.300 683.033, 654 684.421, 654 685.750 C 654 689.038, 656.409 688.117, 656.816 684.673 C 657.117 682.138, 656.123 681.210, 654.667 682.667 M 630.379 686.583 C 630.001 687.637, 629.509 688.837, 629.287 689.250 C 629.064 689.663, 629.535 690, 630.334 690 C 632.180 690, 633.385 686.985, 632.066 685.666 C 631.399 684.999, 630.837 685.305, 630.379 686.583 M 385.755 688.500 C 386.018 689.875, 386.631 691, 387.117 691 C 387.602 691, 388 689.875, 388 688.500 C 388 687.058, 387.424 686, 386.639 686 C 385.726 686, 385.435 686.824, 385.755 688.500 M 410.154 688.970 C 410.344 690.275, 411.063 691.529, 411.750 691.755 C 413.549 692.348, 413.291 689.486, 411.404 687.920 C 410.010 686.764, 409.852 686.897, 410.154 688.970 M 627.667 692.667 C 627.300 693.033, 627 694.196, 627 695.250 C 627 697.843, 629.415 696.920, 629.820 694.172 C 630.129 692.069, 629.031 691.302, 627.667 692.667 M 652.032 694.750 C 652.062 697.384, 652.126 697.418, 653.532 695.559 C 655.403 693.085, 655.393 692, 653.500 692 C 652.523 692, 652.011 692.958, 652.032 694.750 M 388 695.488 C 388 696.398, 388.712 697.854, 389.581 698.724 C 391.023 700.166, 391.133 700.056, 390.831 697.480 C 390.477 694.459, 388 692.716, 388 695.488 M 415.032 700.054 C 414.986 702.274, 419.986 712, 421.173 712 C 421.719 712, 421.904 711.438, 421.584 710.750 C 421.263 710.063, 420.724 708.712, 420.384 707.750 C 420.045 706.788, 419.369 706, 418.883 706 C 418.398 706, 418 705.186, 418 704.191 C 418 701.834, 415.079 697.762, 415.032 700.054 M 390.177 702.667 C 390.663 705.176, 393 705.520, 393 703.083 C 393 701.855, 392.354 701, 391.427 701 C 390.495 701, 389.985 701.680, 390.177 702.667 M 647.667 705.667 C 647.300 706.033, 647 706.965, 647 707.738 C 647 708.511, 646.321 709.822, 645.491 710.652 C 644.054 712.089, 644.268 714, 645.867 714 C 646.573 714, 650 707.089, 650 705.664 C 650 704.805, 648.526 704.807, 647.667 705.667 M 393.385 709.465 C 394.273 710.820, 395 712.620, 395 713.465 C 395 714.309, 395.450 715, 396 715 C 396.550 715, 397 715.639, 397 716.419 C 397 718.203, 400.244 723.985, 401.250 723.994 C 401.663 723.997, 402 723.325, 402 722.500 C 402 721.675, 401.550 721, 401 721 C 400.450 721, 400 720.394, 400 719.654 C 400 717.934, 397.166 712.221, 395.937 711.461 C 395.422 711.142, 395 710.009, 395 708.941 C 395 707.821, 394.317 707, 393.385 707 C 391.898 707, 391.898 707.196, 393.385 709.465 M 619.504 711.350 C 618.576 713.307, 617.182 715.434, 616.408 716.076 C 615.634 716.719, 615 717.672, 615 718.194 C 615 718.716, 614.438 719.723, 613.750 720.432 C 613.063 721.142, 611.150 723.439, 609.500 725.538 C 607.850 727.637, 605.905 729.949, 605.179 730.677 C 602.688 733.171, 605.498 731.997, 608.601 729.248 C 611.433 726.738, 618.497 717.187, 618.399 716 C 618.376 715.725, 618.839 714.953, 619.429 714.285 C 622.955 710.284, 623.201 709.801, 622.213 708.813 C 621.519 708.119, 620.653 708.930, 619.504 711.350 M 422 713.989 C 422 715.200, 425.166 719, 426.176 719 C 426.578 719, 426.140 717.653, 425.203 716.006 C 423.515 713.039, 422 712.085, 422 713.989 M 426 720.845 C 426 722.076, 429.912 725.421, 430.575 724.758 C 431.425 723.908, 428.701 720, 427.259 720 C 426.567 720, 426 720.380, 426 720.845 M 639.615 722.465 C 637.763 725.292, 637.625 726, 638.927 726 C 639.436 726, 640.527 724.650, 641.350 723 C 643.152 719.389, 641.886 718.999, 639.615 722.465 M 402 725.466 C 402 726.594, 410.369 738, 411.197 738 C 412.547 738, 412.101 736.736, 409.939 734.435 C 408.805 733.228, 407.077 730.748, 406.099 728.924 C 404.503 725.948, 402 723.836, 402 725.466 M 635 729.500 C 635 730.325, 634.460 731, 633.800 731 C 632.869 731, 632.868 731.268, 633.796 732.196 C 634.725 733.125, 635.322 732.957, 636.464 731.446 C 638.358 728.943, 638.367 728, 636.500 728 C 635.675 728, 635 728.675, 635 729.500 M 628.750 737.984 C 626.072 740.797, 625.206 743, 626.778 743 C 627.663 743, 629.904 740.379, 631.758 737.175 C 633.512 734.144, 632.026 734.544, 628.750 737.984 M 595.250 740.092 C 590.502 743.690, 588.740 746.002, 590.750 745.999 C 591.645 745.997, 595.557 742.517, 598.924 738.728 C 602.134 735.116, 601.515 735.346, 595.250 740.092 M 447 741.630 C 447 742.942, 452.310 748, 453.687 748 C 454.409 748, 454.990 747.663, 454.979 747.250 C 454.950 746.253, 447 740.653, 447 741.630 M 416.563 745.190 C 422.332 751.455, 430.376 758.958, 430.833 758.500 C 431.399 757.935, 415.551 742, 414.424 742 C 413.985 742, 414.948 743.435, 416.563 745.190 M 621.697 746.637 C 620.840 747.494, 631.953 758.182, 633.250 757.750 C 633.812 757.563, 631.746 754.842, 628.658 751.705 C 622.715 745.666, 622.688 745.646, 621.697 746.637 M 457 749.117 C 457 750.298, 459.882 752.910, 461.250 752.968 C 462.856 753.036, 461.879 751.151, 459.500 749.592 C 457.872 748.526, 457 748.360, 457 749.117 M 575.750 753.687 C 573.138 755.043, 571 756.568, 571 757.076 C 571 758.296, 572.720 758.262, 573.483 757.027 C 573.814 756.491, 575.641 755.315, 577.542 754.413 C 579.444 753.510, 581 752.373, 581 751.886 C 581 751.399, 580.888 751.050, 580.750 751.111 C 580.612 751.172, 578.362 752.331, 575.750 753.687 M 435 761.778 C 435 762.584, 438.650 766, 439.511 766 C 440.685 766, 439.847 763.604, 438.250 762.392 C 436.257 760.879, 435 760.641, 435 761.778 M 485.217 763.166 C 485.459 763.900, 486.684 764.650, 487.940 764.834 C 489.491 765.061, 490.082 764.741, 489.783 763.834 C 489.541 763.100, 488.316 762.350, 487.060 762.166 C 485.509 761.939, 484.918 762.259, 485.217 763.166 M 551.500 763.598 C 549.596 765.060, 549.663 765.118, 552.923 764.817 C 554.806 764.642, 556.531 763.938, 556.756 763.250 C 557.327 761.511, 553.926 761.737, 551.500 763.598 M 606 763.837 C 606 764.607, 613.874 772.293, 625.351 782.725 C 633.806 790.410, 630.180 785.532, 618.995 774.175 C 608.867 763.890, 606 761.609, 606 763.837 M 493 765.417 C 493 767.155, 497.950 768.450, 499.328 767.072 C 500.650 765.750, 500.238 765.428, 496.250 764.669 C 493.867 764.215, 493 764.415, 493 765.417 M 545.500 764.675 C 540.863 765.701, 540.380 766.067, 542.270 767.128 C 544.490 768.375, 548 767.336, 548 765.433 C 548 764.645, 547.888 764.052, 547.750 764.116 C 547.612 764.180, 546.600 764.431, 545.500 764.675 M 598 767 C 598 767.550, 597.325 768, 596.500 768 C 595.675 768, 595 768.691, 595 769.535 C 595 770.714, 595.426 770.843, 596.832 770.090 C 597.840 769.550, 599.245 768.410, 599.955 767.555 C 601.032 766.257, 600.977 766, 599.622 766 C 598.730 766, 598 766.450, 598 767 M 506.248 768.250 C 506.544 769.139, 510.249 769.583, 519.082 769.789 C 531.954 770.089, 536 769.656, 536 767.981 C 536 767.383, 530.110 767, 520.917 767 C 509.295 767, 505.929 767.287, 506.248 768.250 M 591 770.915 C 591 771.483, 587.850 773.416, 584 775.209 C 580.150 777.003, 577 778.815, 577 779.235 C 577 780.622, 578.833 780.039, 584.200 776.945 C 587.115 775.265, 590.288 773.637, 591.250 773.328 C 593.194 772.704, 593.528 771.445, 592 770.500 C 591.450 770.160, 591 770.347, 591 770.915 M 449 771.784 C 449 772.216, 450.350 773.366, 452 774.341 C 454.388 775.751, 455 775.828, 455 774.717 C 455 773.949, 453.854 772.799, 452.453 772.161 C 449.445 770.790, 449 770.741, 449 771.784 M 652.976 776.586 C 655.849 780.311, 675.958 800, 676.889 800 C 677.408 800, 678.034 800.563, 678.280 801.250 C 678.525 801.938, 679.097 802.153, 679.551 801.729 C 680.396 800.939, 657.108 777.726, 653.500 775.762 C 651.643 774.751, 651.606 774.810, 652.976 776.586 M 466.441 781.532 C 468.915 783.403, 470 783.393, 470 781.500 C 470 780.523, 469.042 780.011, 467.250 780.032 C 464.616 780.062, 464.582 780.126, 466.441 781.532 M 479.217 785.166 C 479.459 785.900, 480.684 786.650, 481.940 786.834 C 483.491 787.061, 484.082 786.741, 483.783 785.834 C 483.541 785.100, 482.316 784.350, 481.060 784.166 C 479.509 783.939, 478.918 784.259, 479.217 785.166 M 558.701 784.632 C 557.334 785.999, 558.028 787.135, 560.040 786.820 C 561.161 786.644, 562.085 786.050, 562.092 785.500 C 562.109 784.283, 559.674 783.660, 558.701 784.632 M 486.581 787.981 C 487.121 788.521, 489.011 789.252, 490.781 789.606 C 493.350 790.120, 494 789.922, 494 788.625 C 494 787.383, 493.010 787, 489.800 787 C 487.054 787, 485.940 787.340, 486.581 787.981 M 548 788.500 C 548 790.332, 549.555 790.342, 553.500 788.536 L 556.500 787.162 552.250 787.081 C 549.103 787.021, 548 787.389, 548 788.500 M 498.441 790.532 C 500.552 792.129, 511 792.607, 511 791.107 C 511 789.655, 508.202 788.998, 502.168 789.032 C 496.967 789.061, 496.660 789.184, 498.441 790.532 M 531.667 789.667 C 530.054 791.279, 531.333 792, 535.809 792 C 538.489 792, 541.477 791.350, 542.559 790.532 C 544.335 789.188, 543.983 789.061, 538.417 789.032 C 535.071 789.014, 532.033 789.300, 531.667 789.667 M 653.198 809.302 C 666.095 821.921, 680.071 834.349, 676.500 830.022 C 674.166 827.195, 653.093 806.226, 647.083 800.750 C 644.819 798.688, 642.440 797, 641.796 797 C 641.152 797, 646.283 802.536, 653.198 809.302 M 696 823.500 C 696 825.189, 696.458 826.014, 697.250 825.750 C 697.938 825.521, 698.500 824.508, 698.500 823.500 C 698.500 822.492, 697.938 821.479, 697.250 821.250 C 696.458 820.986, 696 821.811, 696 823.500 M 692.579 831.055 C 691.523 832.120, 690.974 833.307, 691.360 833.693 C 691.745 834.078, 693.274 833.180, 694.758 831.697 C 696.540 829.915, 696.954 829.020, 695.977 829.059 C 695.165 829.092, 693.636 829.990, 692.579 831.055 M 683 835 C 684.971 836.274, 689 836.274, 689 835 C 689 834.450, 687.313 834.007, 685.250 834.015 C 682.461 834.027, 681.884 834.279, 683 835" stroke="none" fill="#b8b8b8" fill-rule="evenodd"/><path d="M 500.013 517.831 C 499.071 518.840, 497.335 519.081, 493.932 518.678 C 490.168 518.233, 489.044 518.444, 488.567 519.686 C 488.106 520.887, 487.023 521.132, 483.982 520.724 C 480.976 520.321, 480 520.534, 480 521.595 C 480 522.920, 478.184 523.467, 475.158 523.053 C 474.420 522.953, 473.249 523.644, 472.557 524.591 C 471.749 525.696, 470.530 526.110, 469.150 525.749 C 467.645 525.356, 467 525.644, 467 526.710 C 467 527.783, 466.283 528.096, 464.577 527.770 C 462.789 527.428, 462.020 527.815, 461.647 529.243 C 461.271 530.678, 460.605 531.009, 459.070 530.522 C 457.578 530.049, 457 530.303, 457 531.433 C 457 532.333, 456.149 533, 455 533 C 453.900 533, 452.996 533.337, 452.992 533.750 C 452.984 534.529, 448.240 537, 446.753 537 C 446.286 537, 444.862 538.125, 443.588 539.500 C 442.313 540.875, 440.760 542, 440.135 542 C 439.511 542, 437.268 543.688, 435.150 545.750 C 429.681 551.078, 427.452 552.766, 425.357 553.170 C 424.348 553.364, 423.361 554.364, 423.163 555.391 C 422.965 556.419, 421.610 558.551, 420.152 560.130 C 418.693 561.709, 416.150 564.566, 414.500 566.480 C 412.850 568.394, 410.938 569.969, 410.250 569.980 C 409.563 569.991, 409 571.092, 409 572.427 C 409 573.847, 407.927 575.699, 406.416 576.887 C 404.995 578.005, 404.090 579.337, 404.405 579.847 C 404.720 580.356, 404.308 581.329, 403.489 582.009 C 402.670 582.689, 402 583.865, 402 584.622 C 402 585.380, 401.550 586, 401 586 C 400.450 586, 400 586.689, 400 587.531 C 400 588.374, 399.375 589.303, 398.611 589.596 C 397.811 589.903, 397.435 590.946, 397.724 592.052 C 398.030 593.223, 397.620 594.208, 396.677 594.571 C 395.824 594.898, 395.349 595.745, 395.621 596.454 C 395.893 597.162, 395.414 598.443, 394.558 599.300 C 393.701 600.156, 393 601.803, 393 602.960 C 393 604.117, 392.328 605.321, 391.507 605.636 C 390.464 606.036, 390.207 606.978, 390.655 608.760 C 391.111 610.580, 390.786 611.683, 389.519 612.610 C 388.367 613.452, 387.940 614.662, 388.303 616.051 C 389.011 618.758, 388.178 621, 386.465 621 C 385.458 621, 385.283 622.341, 385.728 626.650 C 386.162 630.859, 385.952 632.580, 384.905 633.400 C 382.840 635.016, 382.835 671.991, 384.899 673.600 C 385.971 674.435, 386.151 676.062, 385.647 680.350 C 385.098 685.014, 385.246 686, 386.491 686 C 387.578 686, 388 687.089, 388 689.893 C 388 692.551, 388.511 693.982, 389.612 694.405 C 390.751 694.842, 391.095 695.899, 390.785 698.012 C 390.470 700.159, 390.755 701, 391.798 701 C 392.878 701, 393.096 701.769, 392.650 704 C 392.200 706.249, 392.419 707, 393.525 707 C 394.336 707, 395 707.873, 395 708.941 C 395 710.009, 395.422 711.142, 395.937 711.461 C 397.166 712.221, 400 717.934, 400 719.654 C 400 720.394, 400.450 721, 401 721 C 401.550 721, 402 721.652, 402 722.448 C 402 723.245, 403.125 725.111, 404.500 726.595 C 405.875 728.078, 407 729.823, 407 730.472 C 407 731.121, 408.126 732.710, 409.503 734.003 C 410.880 735.296, 411.893 736.847, 411.755 737.448 C 411.481 738.644, 433.876 761.336, 435.500 761.508 C 437.745 761.746, 440 763.299, 440 764.607 C 440 765.373, 440.675 766, 441.500 766 C 442.325 766, 443 766.633, 443 767.406 C 443 768.320, 443.700 768.630, 445 768.290 C 446.125 767.996, 447 768.259, 447 768.891 C 447 769.510, 448.800 770.736, 451 771.617 C 453.200 772.497, 455 773.801, 455 774.515 C 455 775.318, 455.758 775.614, 456.988 775.293 C 458.226 774.969, 459.200 775.358, 459.571 776.323 C 459.898 777.176, 460.799 777.630, 461.574 777.333 C 462.349 777.036, 463.260 777.514, 463.599 778.396 C 463.967 779.357, 465.375 780, 467.107 780 C 469.099 780, 470 780.501, 470 781.608 C 470 782.828, 470.609 783.064, 472.522 782.584 C 474.301 782.137, 475.219 782.407, 475.638 783.499 C 476.085 784.663, 477.069 784.890, 479.605 784.414 C 482.184 783.931, 483.124 784.161, 483.596 785.391 C 484.048 786.566, 485.532 787, 489.107 787 C 492.548 787, 494 787.401, 494 788.350 C 494 789.403, 495.609 789.596, 501.309 789.231 C 507.156 788.855, 508.943 789.086, 510.238 790.381 C 512.625 792.768, 530.499 792.749, 531.416 790.359 C 531.952 788.960, 533.226 788.798, 540.023 789.264 C 546.468 789.706, 548 789.541, 548 788.405 C 548 787.390, 549.357 787, 552.893 787 C 556.429 787, 557.954 786.562, 558.392 785.420 C 558.844 784.242, 559.760 784.008, 562 784.500 C 564.292 785.003, 565.154 784.763, 565.645 783.483 C 566.119 782.247, 567.037 781.957, 569.144 782.379 C 571.253 782.801, 572 782.564, 572 781.475 C 572 780.582, 572.953 780, 574.417 780 C 575.746 780, 576.983 779.618, 577.167 779.152 C 577.350 778.685, 580.538 776.862, 584.250 775.101 C 587.962 773.339, 591 771.513, 591 771.043 C 591 770.572, 591.900 770.423, 593 770.710 C 594.391 771.074, 595 770.741, 595 769.617 C 595 768.727, 595.675 768, 596.500 768 C 597.325 768, 598 767.550, 598 767 C 598 766.450, 599.087 766, 600.417 766 C 601.746 766, 602.983 765.609, 603.167 765.132 C 603.350 764.655, 604.455 763.968, 605.622 763.605 C 607.936 762.887, 615.070 769.452, 631.933 787.816 C 636.571 792.867, 640.951 797, 641.666 797 C 643.332 797, 648.021 801.266, 665.025 818.250 C 672.596 825.813, 679.288 832, 679.895 832 C 680.503 832, 681 832.450, 681 833 C 681 833.550, 683.046 834, 685.548 834 C 689.114 834, 690.595 833.461, 692.412 831.500 C 693.687 830.125, 695.171 829, 695.710 829 C 696.836 829, 696.646 820.493, 695.454 817.500 C 694.201 814.354, 681.694 802.015, 679.750 802.007 C 678.788 802.003, 678 801.550, 678 801 C 678 800.450, 677.524 800, 676.941 800 C 675.837 800, 659.950 784.178, 644.500 767.691 C 639.550 762.409, 634.743 758.068, 633.817 758.044 C 632.892 758.020, 629.588 755.534, 626.476 752.520 L 620.818 747.040 623.409 745.859 C 624.885 745.187, 626 743.854, 626 742.763 C 626 740.661, 631.134 735, 633.040 735 C 633.741 735, 634.018 734.175, 633.710 733 C 633.423 731.900, 633.595 731, 634.094 731 C 634.592 731, 635 730.325, 635 729.500 C 635 728.675, 635.675 728, 636.500 728 C 637.325 728, 638 727.166, 638 726.146 C 638 725.126, 639.078 723.129, 640.395 721.708 C 641.712 720.286, 642.501 718.834, 642.147 718.480 C 641.793 718.126, 642.346 717.220, 643.377 716.466 C 644.443 715.687, 645 714.441, 644.668 713.577 C 644.347 712.741, 644.741 711.402, 645.542 710.600 C 646.344 709.799, 647 708.422, 647 707.540 C 647 706.658, 647.708 705.665, 648.574 705.333 C 649.663 704.915, 649.964 703.993, 649.550 702.343 C 649.141 700.715, 649.436 699.770, 650.475 699.371 C 651.427 699.006, 652 697.511, 652 695.393 C 652 692.984, 652.453 692, 653.561 692 C 654.844 692, 655.003 691.200, 654.449 687.512 C 653.927 684.025, 654.107 682.896, 655.255 682.455 C 656.385 682.022, 656.707 680.209, 656.617 674.778 C 656.537 669.892, 656.891 667.538, 657.750 667.251 C 659.529 666.657, 659.540 639.347, 657.762 638.754 C 656.929 638.476, 656.572 636.255, 656.671 631.964 C 656.780 627.214, 656.419 625.296, 655.256 624.446 C 654.096 623.597, 653.839 622.239, 654.253 619.152 C 654.677 615.989, 654.475 615, 653.405 615 C 652.474 615, 652 613.854, 652 611.607 C 652 609.437, 651.430 607.995, 650.420 607.608 C 649.242 607.156, 649.008 606.240, 649.500 604.001 C 650.029 601.591, 649.826 601, 648.471 601 C 647.170 601, 646.927 600.427, 647.411 598.500 C 647.874 596.655, 647.640 596, 646.519 596 C 645.659 596, 645 595.119, 645 593.969 C 645 592.851, 644.353 591.689, 643.563 591.386 C 642.755 591.076, 642.385 590.160, 642.718 589.293 C 643.060 588.402, 642.594 587.352, 641.611 586.802 C 640.511 586.187, 640.128 585.172, 640.524 583.926 C 640.897 582.751, 640.664 582, 639.928 582 C 638.334 582, 636.072 578.952, 636.032 576.750 C 636.014 575.788, 635.487 575, 634.860 575 C 633.497 575, 631.077 572.003, 631.032 570.260 C 631.014 569.578, 627.545 565.753, 623.323 561.760 C 613.520 552.490, 607.013 545.706, 607.006 544.750 C 607.003 544.337, 606.169 544, 605.153 544 C 604.138 544, 601.766 542.503, 599.882 540.674 C 597.998 538.844, 595.904 537.532, 595.229 537.757 C 594.554 537.982, 593.728 537.454, 593.394 536.583 C 593.059 535.712, 592.150 535, 591.373 535 C 590.596 535, 588.178 533.875, 586 532.500 C 583.822 531.125, 581.581 530, 581.020 530 C 580.459 530, 580 529.550, 580 529 C 580 528.450, 578.875 528, 577.500 528 C 575.870 528, 575 527.441, 575 526.392 C 575 525.172, 574.391 524.936, 572.478 525.416 C 570.666 525.871, 569.781 525.593, 569.334 524.428 C 568.875 523.233, 567.937 522.963, 565.761 523.398 C 563.418 523.866, 562.708 523.599, 562.316 522.101 C 561.907 520.537, 561.157 520.303, 557.930 520.736 C 554.931 521.138, 553.893 520.885, 553.413 519.633 C 552.903 518.304, 551.839 518.119, 547.582 518.619 C 543.845 519.058, 541.968 518.844, 540.937 517.861 C 538.810 515.834, 501.904 515.807, 500.013 517.831 M 499 539.710 C 499 540.617, 497.768 540.793, 494.520 540.348 C 490.922 539.854, 489.916 540.055, 489.413 541.367 C 489.003 542.434, 487.610 543, 485.393 543 C 483.241 543, 482 543.485, 482 544.327 C 482 545.232, 481.047 545.514, 479 545.213 C 476.658 544.870, 476 545.150, 476 546.495 C 476 547.832, 475.442 548.077, 473.500 547.589 C 471.655 547.126, 471 547.360, 471 548.481 C 471 549.435, 470.069 550, 468.500 550 C 466.897 550, 466 550.562, 466 551.567 C 466 552.611, 465.409 552.947, 464.233 552.574 C 463.149 552.230, 461.425 552.977, 459.776 554.506 C 458.297 555.878, 456.586 557, 455.972 557 C 454.552 557, 452 559.524, 452 560.929 C 452 561.518, 451.068 562, 449.928 562 C 447.286 562, 429 580.152, 429 582.775 C 429 583.813, 427.846 585.279, 426.436 586.034 C 424.731 586.947, 424.030 588.008, 424.343 589.203 C 424.631 590.303, 424.267 591, 423.406 591 C 422.633 591, 422 591.627, 422 592.393 C 422 593.159, 421.360 594.032, 420.578 594.332 C 419.707 594.666, 419.364 595.677, 419.694 596.939 C 420.085 598.435, 419.758 599, 418.500 599 C 417.259 599, 416.915 599.568, 417.290 601 C 417.630 602.300, 417.320 603, 416.406 603 C 415.522 603, 415 604.074, 415 605.893 C 415 607.627, 414.357 609.033, 413.394 609.402 C 412.251 609.841, 411.968 610.736, 412.413 612.509 C 412.887 614.400, 412.646 615, 411.410 615 C 410.137 615, 409.871 615.766, 410.190 618.500 C 410.472 620.914, 410.195 622, 409.299 622 C 407.964 622, 407.654 623.458, 407.969 628.246 C 408.069 629.757, 407.554 631.589, 406.825 632.318 C 405.052 634.091, 405.075 674.192, 406.850 674.783 C 407.509 675.003, 408 677.266, 408 680.083 C 408 683.750, 408.375 685, 409.475 685 C 410.579 685, 410.800 685.751, 410.353 687.985 C 409.903 690.236, 410.173 691.129, 411.452 691.620 C 412.661 692.084, 412.976 692.958, 412.550 694.657 C 412.141 696.285, 412.436 697.230, 413.475 697.629 C 414.314 697.951, 415 698.977, 415 699.911 C 415 702.189, 419.942 712, 421.089 712 C 421.590 712, 422 712.736, 422 713.635 C 422 714.535, 423.097 716.288, 424.438 717.530 C 425.779 718.773, 426.607 720.060, 426.278 720.389 C 425.604 721.063, 428.873 725, 430.107 725 C 431.843 725, 441 735.218, 441 737.155 C 441 738.570, 441.467 739.035, 442.493 738.641 C 443.313 738.326, 444.423 738.616, 444.958 739.284 C 450.579 746.311, 452.449 748, 454.604 748 C 455.922 748, 457 748.513, 457 749.140 C 457 750.677, 460.089 752.929, 462.250 752.968 C 463.212 752.986, 464 753.705, 464 754.567 C 464 755.647, 464.586 755.949, 465.882 755.538 C 467.104 755.150, 467.984 755.516, 468.394 756.584 C 468.797 757.634, 469.741 758.039, 471.012 757.707 C 472.300 757.370, 473 757.682, 473 758.594 C 473 759.478, 474.074 760, 475.893 760 C 477.627 760, 479.033 760.643, 479.402 761.606 C 479.832 762.726, 480.741 763.031, 482.405 762.613 C 484.067 762.196, 484.978 762.501, 485.406 763.616 C 485.881 764.852, 486.819 765.069, 489.511 764.564 C 492.174 764.064, 493 764.248, 493 765.338 C 493 767.223, 496.033 767.939, 501.123 767.257 C 504.319 766.828, 505.463 767.076, 506.177 768.351 C 507.538 770.785, 533.052 770.806, 535.482 768.375 C 536.670 767.188, 538.200 766.898, 541.176 767.297 C 545.864 767.926, 548 767.349, 548 765.456 C 548 764.484, 548.983 764.285, 551.650 764.718 C 554.441 765.171, 555.600 764.900, 556.577 763.564 C 557.433 762.393, 558.537 762.036, 559.931 762.478 C 561.343 762.926, 562.203 762.634, 562.612 761.569 C 562.967 760.644, 564.401 760, 566.107 760 C 568.067 760, 569 759.495, 569 758.433 C 569 757.343, 569.584 757.051, 570.916 757.473 C 571.970 757.808, 573.114 757.625, 573.458 757.067 C 573.803 756.510, 575.641 755.315, 577.542 754.413 C 579.444 753.510, 581 752.163, 581 751.417 C 581 750.588, 581.619 750.300, 582.595 750.675 C 583.603 751.062, 585.026 750.314, 586.461 748.643 C 587.711 747.190, 589.448 746, 590.322 746 C 591.196 746, 593.844 743.913, 596.206 741.362 C 603.043 733.978, 605.439 731.634, 608.332 729.500 C 610.731 727.730, 618.688 716.953, 618.140 716.214 C 618.024 716.057, 618.507 715.285, 619.214 714.499 C 622.456 710.894, 622.943 710.015, 622.433 708.685 C 622.101 707.820, 622.667 707.059, 623.879 706.742 C 625.279 706.376, 625.717 705.635, 625.355 704.248 C 625.026 702.992, 625.437 702.046, 626.488 701.643 C 627.563 701.230, 627.929 700.352, 627.539 699.123 C 627.149 697.894, 627.515 697.016, 628.592 696.603 C 629.825 696.130, 630.092 695.212, 629.647 692.985 C 629.217 690.835, 629.433 690, 630.418 690 C 632.192 690, 633.016 687.776, 632.282 684.970 C 631.888 683.465, 632.259 682.434, 633.431 681.779 C 634.854 680.982, 635.045 679.963, 634.506 676.041 C 633.979 672.212, 634.160 671.153, 635.425 670.667 C 637.701 669.794, 637.803 636.245, 635.532 635.374 C 634.404 634.941, 634.209 633.757, 634.688 630.256 C 635.193 626.572, 634.973 625.453, 633.535 624.402 C 632.261 623.470, 631.940 622.374, 632.403 620.529 C 632.860 618.709, 632.603 617.785, 631.525 617.371 C 630.639 617.031, 630 615.560, 630 613.862 C 630 612.253, 629.375 610.697, 628.611 610.404 C 627.811 610.097, 627.435 609.054, 627.724 607.948 C 628.030 606.777, 627.620 605.792, 626.677 605.429 C 625.824 605.102, 625.349 604.255, 625.621 603.546 C 625.893 602.838, 625.414 601.557, 624.558 600.700 C 623.701 599.844, 623 598.436, 623 597.571 C 623 596.707, 622.277 596, 621.393 596 C 620.381 596, 619.998 595.449, 620.357 594.512 C 620.674 593.685, 619.835 591.846, 618.464 590.366 C 617.109 588.904, 616 587.263, 616 586.719 C 616 586.175, 614.875 584.687, 613.500 583.412 C 612.125 582.138, 611 580.624, 611 580.048 C 611 579.471, 610.325 579, 609.500 579 C 608.675 579, 608 578.232, 608 577.294 C 608 575.556, 596.509 563.838, 595.212 564.254 C 594.820 564.379, 592.774 562.798, 590.664 560.741 C 588.554 558.683, 586.192 557, 585.414 557 C 584.636 557, 584 556.549, 584 555.997 C 584 555.445, 582.200 554.214, 580 553.261 C 577.800 552.308, 576 551.184, 576 550.764 C 576 550.344, 575.361 550, 574.581 550 C 572.936 550, 566.805 546.918, 565.858 545.615 C 565.504 545.128, 564.041 545.024, 562.607 545.384 C 560.655 545.874, 560 545.657, 560 544.519 C 560 543.459, 558.975 543, 556.607 543 C 554.390 543, 552.997 542.434, 552.587 541.367 C 552.086 540.061, 551.078 539.854, 547.554 540.338 C 544.530 540.752, 543.020 540.561, 542.744 539.731 C 542.150 537.951, 499 537.930, 499 539.710" stroke="none" fill="#f9f9f9" fill-rule="evenodd"/></svg>